<?xml version="1.0" standalone="yes"?>
<svg xmlns="http://www.w3.org/2000/svg" width="606" height="606">
<path style="fill:#020202; stroke:none;" d="M0 0L0 606L314 606L398 606L420 606C422.943 606 427.002 606.651 429.606 604.972C431.926 603.477 432.814 600.397 433.85 598C436.304 592.32 438.763 586.64 441.306 581C450.801 559.938 459.913 538.667 470.247 518C481.287 495.92 492.197 472.952 506.884 453C528.037 424.266 556.457 401.013 587 383C578.939 392.902 566.383 398.853 558.39 409.001C550.854 418.569 547.883 431.103 540.522 441C529.922 455.252 515.55 466.6 505.44 481C500.267 488.368 497.04 496.91 493.219 505L475.219 543C468.948 556.276 463.135 569.786 456.742 583C453.101 590.524 448.319 597.948 446 606C458.044 605.957 464.875 593.518 472.729 585.576C484.105 574.072 496.28 563.222 509 553.211C515.471 548.118 522.379 542.206 530 539C526.41 546.698 517.94 552.062 512 558C504.297 565.7 497.238 573.938 489.925 582C483.19 589.425 475.505 596.954 471 606L532 606C537.461 606 549.12 608.232 553.031 603.682C557.966 597.942 560.297 587.921 563.281 581C571.56 561.797 578.952 541.954 585.191 522C587.28 515.32 589.418 508.653 591.591 502.001C592.149 500.292 593.189 496.095 595.791 496.631C598.347 497.158 597.778 501.23 597.57 503C596.772 509.782 595.3 516.388 593.626 523C586.503 551.123 573.525 577.795 567 606L606 606L606 0L342 0L268 0L247 0C244.103 0 240.086 -0.676697 237.394 0.603394C233.456 2.47552 231.845 10.2344 230.425 14C225.306 27.5731 220.977 41.6064 219 56C212.939 100.127 217.08 151.69 239.579 191C245.753 201.787 252.843 214.524 263 222C259.647 214.218 255.438 206.99 252.425 199C244.153 177.064 238.722 151.492 239.019 128C239.222 111.855 241.616 94.6241 245.735 79C247.444 72.5162 250.239 66.4374 252 60C254.298 70.6118 249.218 84.2095 248.17 95C246.124 116.061 244.904 138.042 248.615 159C253.134 184.52 265.227 206.045 278.4 228C304.868 272.115 340.821 308.957 383 338.025C397.262 347.854 411.936 358.312 428 365C421.691 365.139 415.687 361.057 410 358.576C394.483 351.805 379.67 342.989 365 334.579C319.876 308.709 273.782 276.316 241.576 235C229.02 218.894 216.634 200.481 210 181C207.708 186.463 209 194.113 209 200C209 216.784 211.284 233.413 213.728 250C221.767 304.544 245.649 361.415 294 391.575C312.113 402.873 331.957 412.591 352 419.947C357.937 422.126 363.881 424.501 370 426.116C374.2 427.224 379.057 427.585 383 429.433C391.791 433.553 396.725 442.997 406 447C395.759 486.567 382.782 524.78 365.691 562C361.902 570.254 356.86 577.84 353 586C352.649 580.541 355.285 575.145 357 570C360.212 560.364 363.362 550.729 366.28 541C375.518 510.202 385 477.34 385 445C382.019 449.737 380.798 455.713 378.997 461C375.907 470.069 372.683 479.283 368.691 488C362.285 501.991 354.497 515.826 346.55 529C343.11 534.702 338.956 540.032 336 546C337.843 535.242 346.85 523.806 351.753 514C362.246 493.014 373.219 470.104 378 447C373.517 452.41 370.907 459.735 367.752 466C362.448 476.534 356.619 486.887 350.551 497C335.683 521.78 317.463 544.624 298.075 566C287.803 577.324 277.468 589.036 265 598C269.577 591.425 275.436 585.988 280.715 580C290.839 568.515 300.477 556.539 309.279 544C333.155 509.991 349.194 472.355 362 433C321.705 415.139 279.986 400.625 247 369.91C234.031 357.835 222.779 344.634 214.309 329C200.077 302.733 193.825 272.159 188.75 243C179.406 189.318 175.7 136.919 185.424 83C188.394 66.5354 192.059 49.9839 197.025 34C200.47 22.9147 206.042 11.3792 208 0L0 0z"/>
<path style="fill:#fbfbfb; stroke:none;" d="M208 0C204.139 14.1437 198.366 27.8182 194.424 42C187.464 67.0409 182.635 93.1285 180.17 119C176.189 160.769 181.587 202.85 188.75 244C195.445 282.462 204.652 323.395 230.439 354C262.968 392.606 314.718 417.615 362 433C357.713 442.672 355.017 453.119 351.189 463C342.321 485.894 332.105 508.397 318.656 529C308.942 543.881 298.564 558.613 286.844 572C279.734 580.121 269.564 588.155 265 598C280.095 590.481 292.563 573.578 303.424 561C325.717 535.182 345.825 508.222 361.781 478C367.039 468.041 373.867 457.874 377 447C377.099 455.383 372.555 464.229 369.681 472C363.461 488.82 355.81 504.998 347.752 521C343.613 529.221 337.781 537.212 335 546C343.025 538.853 348.183 527.328 353.306 518C362.131 501.929 370 486.181 376.424 469C379.312 461.279 382.792 453.18 384 445C387.723 457.594 382.473 475.458 379.65 488C374.881 509.194 369.422 530.251 362.975 551C359.414 562.459 353.755 574.115 352 586C362.837 576.067 368.428 557.39 373.8 544C386.53 512.273 399.461 480.721 406 447C398.136 442.164 392.151 433.253 384 429.433C380.057 427.585 375.201 427.224 371 426.116C364.553 424.415 358.235 421.929 352 419.575C325.549 409.589 298.898 396.414 277 378.385C252.362 358.1 236.293 328.878 226.333 299C213.474 260.423 209 221.473 209 181C217.925 197.741 225.418 214.673 236.895 230C269.141 273.064 315.645 306.831 362 333.421C377.654 342.401 393.415 351.829 410 359C415.93 361.564 421.577 364.894 428 366C421.756 359.689 411.523 356.151 404 351.308C385.139 339.166 365.732 326.863 349 311.831C318.223 284.181 291.645 251.253 271.688 215C261.158 195.87 251.41 178.041 248.285 156C245.467 136.119 246.234 115.927 248.17 96C249.335 84.0027 252.483 72.0452 253 60C244.787 70.1658 243.393 87.4741 241.579 100C235.759 140.198 241.453 186.794 263 222C220.539 177.634 209.277 107.841 220.261 49C223.45 31.9168 231.465 16.5804 236 0L208 0M272 101C267.942 122.857 272.207 145.375 275 167C280.361 167 285.89 167.38 291 165.437C296.965 163.168 300.266 159.163 307 159C300.301 167.792 294.906 170.999 284 171C289.667 180.951 297.357 171.449 304 168.417C306.912 167.089 309.864 167.028 313 167C299.813 173.633 307.128 191.721 312.862 202C314.639 205.186 316.855 210.19 320.301 211.879C325.597 214.475 334.393 207.151 339 205C333.162 209.963 323.282 211.498 323 220C316.551 211.123 311.624 200.02 303 193C298.445 202.451 289.742 196.791 282 195C282 204.262 280.045 216.437 284.314 225C287.934 232.261 295.812 237.156 300.304 244C305.486 251.895 310.082 262.274 317.184 268.61C324.66 275.278 337.17 275.692 343.262 284.184C346.95 289.326 347.675 297.267 350.792 303C357.706 315.714 369.321 327.184 381 335.572C385.862 339.064 391.057 342.854 397 344C386.87 314.24 372.56 286.437 377.92 254C378.866 248.273 380.048 242.564 381.721 237C382.539 234.283 384.468 230.89 383.593 228.001C382.534 224.503 379.058 222.427 376 221C376.326 232.309 368.171 250.202 357 254C358.349 252.232 359.122 251.018 360 249C351.38 246.933 345.999 240.911 339 236C337.551 241.146 336.021 246.048 334 251C333.307 246.335 335.103 241.623 336 237C330.709 243.061 327.135 249.402 319 252C326.009 244.672 331.493 237.477 329 227L318 233C329.356 220.001 343.949 213.928 359 206C356.153 200.158 349.86 196.315 345 192.13C335.461 183.918 325.376 175.618 316.71 166.53C304.519 153.745 293.326 138.107 284.204 123C279.944 115.946 277.244 107.328 272 101M365 213.33C361.185 214.357 350.653 222.682 351.02 227.015C351.383 231.295 356.383 236.747 359.015 239.937C360.249 241.433 361.756 243.283 363.947 242.654C370.374 240.811 374.612 226.864 373.837 221.004C373.344 217.277 369.253 212.186 365 213.33M350 241C349.995 239.013 350.092 236.969 349.811 234.996C348.459 225.487 337.521 229.697 342.449 236.942C343.094 237.891 344.085 238.745 345.019 239.397C346.637 240.524 348.12 240.71 350 241M355 240L355 242L351 241C353.334 244.74 356.751 245.617 361 246C359.313 243.154 357.948 241.497 355 240z"/>
<path style="fill:#020202; stroke:none;" d="M332.333 251.667C332.278 251.722 332.222 252.778 332.667 252.333C332.722 252.278 332.778 251.222 332.333 251.667M317.667 252.333C317.222 252.778 318.278 252.722 318.333 252.667C318.778 252.222 317.722 252.278 317.667 252.333M356 254L357 255L356 254z"/>
<path style="fill:#fbfbfb; stroke:none;" d="M298 293C293.774 301.019 291.12 309.461 285.856 317C283.535 320.325 280.027 324.542 281.619 328.91C282.78 332.097 286.376 334.214 289 336.09C295.876 341.006 304.263 343.613 310.961 348.637C319.441 354.999 321.957 366.797 330.289 373.146C335.244 376.921 341.771 375.007 346.892 378.013C351.731 380.854 352.443 387.717 357.043 391.211C363.423 396.058 372.066 396.588 377.895 402.188C387.97 411.868 391.104 433.624 407 436.594C417.561 438.568 429.193 422.685 434 415C428.629 417.672 424.158 421.716 419 424.746C416.176 426.405 413.158 427.065 411.175 423.848C407.413 417.744 409.152 407.807 408.985 401C408.619 386.067 405.851 369.554 392.907 360.206C385.819 355.087 375.713 351.729 367 351.09C359.314 350.527 351.586 351.651 344 349.761C337.069 348.034 332.973 340.961 326 339.395C321.317 338.344 316.616 340.78 312 339.678C306.837 338.446 303.415 333.043 299 330.343C296.421 328.766 292.511 328.232 290.647 325.697C287.795 321.816 292.459 317.045 294.565 314C299.443 306.946 303.084 301.476 300 293L298 293M460 295C460 351.691 448.219 408.529 429.656 462C422.319 483.134 414.53 504.089 406.576 525C402.539 535.611 396.992 546.06 394 557C404.243 548.534 410.077 532.522 416.309 521C428.03 499.33 437.854 476.869 447 454C451.218 443.455 457.069 432.222 459 421C460.608 428.425 457.599 437.406 457 445C461.768 438.627 464.842 427.844 466 420C467.614 429.541 463.861 440.563 462.285 450C459.655 465.753 457.042 481.393 453.576 497C450.934 508.894 446.97 520.805 446 533C449.522 527.403 450.787 520.201 453.053 514C458.737 498.447 464.079 482.703 469.333 467C479.927 435.342 488.489 403.154 497.424 371C503.399 349.5 511.037 326.427 512 304C508.781 308.512 508.047 314.708 506.576 320C503.438 331.288 500.502 342.642 497.626 354C490.138 383.571 478.808 412.304 472 442C470.771 429.911 476.529 416.146 477.834 404C480.64 377.89 482 352.278 482 326C476.849 332.263 476.15 343.263 474.116 351C469.377 369.025 465.715 387.592 459 405C458.328 393.318 460.115 381.623 460.91 370C461.913 355.367 462 340.685 462 326C462 316.443 463.761 303.942 460 295z"/>
<path style="fill:#020202; stroke:none;" d="M345 373C349.551 376.447 355.642 374.111 361 374L361 372C355.563 372 350.388 372.319 345 373M358 378C360.764 381.519 363.596 383.202 368 384L367 381C374.17 379.669 381.73 378.575 389 378C380.489 374.429 367.197 378 358 378z"/>
<path style="fill:#fbfbfb; stroke:none;" d="M586 383C557.896 399.574 531.923 420.369 511.449 446C496.063 465.261 484.732 488.043 473.753 510C458.065 541.376 443.319 573.537 430 606C434.19 606 441.79 607.467 445.363 604.972C448.498 602.784 450.101 597.305 451.753 594C456.204 585.098 460.595 576.122 464.576 567C473.1 547.463 482.275 528.09 491.752 509C496.045 500.353 499.334 491.054 504.749 483C510.581 474.327 518.835 467.61 525.911 460C536.195 448.94 545.021 436.694 551.309 423C556.897 410.829 564.91 403.057 575 394.428C578.236 391.661 586.109 387.541 586 383z"/>
<path style="fill:#020202; stroke:none;" d="M470.333 442.667C470.278 442.722 470.222 443.778 470.667 443.333C470.722 443.278 470.778 442.222 470.333 442.667z"/>
<path style="fill:#fbfbfb; stroke:none;" d="M552 606C555.846 606 563.075 607.39 566.298 604.972C570.944 601.488 572.495 589.345 574.344 584C580.75 565.482 587.199 546.852 592.573 528C594.73 520.43 596.309 512.785 597.421 505C597.749 502.697 598.992 497.721 596.441 496.176C593.655 494.489 592.162 499.275 591.591 501.005C589.398 507.649 587.279 514.322 585.191 521C576.078 550.145 563.699 577.862 552 606M454 606C458.714 606 465.416 607.218 469.826 605.397C474.519 603.459 477.788 596.696 481.051 593C490.239 582.594 499.207 571.841 509.001 562C515.476 555.493 527.475 547.994 530 539C521.596 541.18 513.714 548.68 507 554.003C492.767 565.288 478.891 577.522 466.715 591.015C462.302 595.904 457.06 600.1 454 606M334 546L335 547L334 546z"/>
</svg>
