<?xml version="1.0" standalone="no"?>
<!DOCTYPE svg PUBLIC "-//W3C//DTD SVG 20010904//EN"
 "http://www.w3.org/TR/2001/REC-SVG-20010904/DTD/svg10.dtd">
<svg version="1.0" xmlns="http://www.w3.org/2000/svg"
 width="256.000000pt" height="256.000000pt" viewBox="0 0 256.000000 256.000000"
 preserveAspectRatio="xMidYMid meet">
<metadata>
Created by potrace 1.11, written by Peter Selinger 2001-2013
</metadata>
<g transform="translate(0.000000,256.000000) scale(0.100000,-0.100000)"
fill="#000000" stroke="none">
<path d="M1198 2555 c-2 -1 -28 -5 -58 -9 -30 -3 -66 -8 -80 -11 -14 -2 -38
-7 -55 -11 -107 -20 -290 -94 -390 -157 -258 -161 -461 -418 -545 -690 -103
-333 -84 -636 60 -943 52 -112 197 -324 221 -324 2 0 4 39 5 88 2 173 85 308
290 472 149 119 519 268 759 306 63 10 96 34 62 47 -7 2 -64 6 -127 7 -299 5
-463 30 -556 85 -142 83 -186 271 -102 440 57 115 146 209 281 299 221 145
550 242 854 250 53 2 46 12 -29 44 -122 51 -238 84 -343 97 -50 7 -242 14
-247 10z"/>
<path d="M2240 2088 c0 -39 -16 -49 -202 -136 -58 -28 -145 -73 -192 -101 -48
-28 -89 -51 -92 -51 -8 0 13 33 38 60 13 13 21 29 20 35 -2 5 0 7 4 3 4 -4 23
7 43 25 20 17 49 42 66 54 16 12 28 24 25 27 -12 11 -124 23 -202 21 -103 -3
-146 -10 -262 -41 -93 -25 -96 -26 -131 -38 -11 -5 -33 -13 -50 -19 -126 -45
-301 -144 -372 -210 -125 -117 -86 -173 137 -203 75 -10 237 -16 502 -19 293
-3 329 -7 350 -39 32 -47 -40 -179 -120 -220 -16 -8 -83 -24 -148 -35 -169
-29 -171 -30 -252 -52 -168 -47 -345 -129 -501 -233 -292 -194 -350 -367 -149
-441 79 -29 337 -27 458 4 47 12 94 24 106 26 42 10 201 77 284 121 108 58
258 158 349 234 39 33 74 60 77 60 9 0 -2 -146 -16 -210 -36 -165 -177 -309
-402 -413 -80 -37 -262 -102 -312 -111 -15 -3 -42 -10 -59 -15 -31 -10 -61
-16 -122 -26 -111 -17 -152 -21 -250 -24 -60 -1 -111 -4 -113 -5 -8 -9 239
-80 328 -95 343 -58 723 42 999 263 75 59 207 207 263 293 254 390 283 863 78
1273 -37 75 -132 220 -160 245 -19 18 -20 17 -20 -7z"/>
</g>
</svg>
